<?xml version="1.0" encoding="UTF-8"?>
<!DOCTYPE svg PUBLIC "-//W3C//DTD SVG 1.1//EN" "http://www.w3.org/Graphics/SVG/1.1/DTD/svg11.dtd">
<svg xmlns="http://www.w3.org/2000/svg" version="1.1" width="2048px" height="2048px" style="shape-rendering:geometricPrecision; text-rendering:geometricPrecision; image-rendering:optimizeQuality; fill-rule:evenodd; clip-rule:evenodd" xmlns:xlink="http://www.w3.org/1999/xlink">
<g><path style="opacity:0.995" fill="#e65614" d="M 1044.5,-0.5 C 1045.17,-0.5 1045.83,-0.5 1046.5,-0.5C 1133.27,50.0591 1220.27,100.392 1307.5,150.5C 1308.67,378.499 1308.83,606.499 1308,834.5C 1220.63,885.366 1133.13,936.033 1045.5,986.5C 1044.5,657.501 1044.17,328.501 1044.5,-0.5 Z"/></g>
<g><path style="opacity:0.997" fill="#e65614" d="M 409.5,340.5 C 607.147,453.745 804.647,567.412 1002,681.5C 1002.83,783.168 1002.67,884.835 1001.5,986.5C 716.918,822.293 432.418,657.96 148,493.5C 147.833,493.167 147.667,492.833 147.5,492.5C 234.864,441.82 322.197,391.154 409.5,340.5 Z"/></g>
<g><path style="opacity:0.997" fill="#e65614" d="M 1919.5,529.5 C 1920.83,579.996 1921.5,630.829 1921.5,682C 1921.33,732.833 1921.17,783.667 1921,834.5C 1724.34,948.665 1527.34,1062.33 1330,1175.5C 1241.94,1125.22 1154.1,1074.55 1066.5,1023.5C 1348.34,860.414 1630.34,697.581 1912.5,535C 1915.27,533.629 1917.6,531.796 1919.5,529.5 Z"/></g>
<g><path style="opacity:0.997" fill="#e65614" d="M 715.5,871.5 C 718.691,872.092 721.691,873.259 724.5,875C 809.997,924.247 895.33,973.747 980.5,1023.5C 695.833,1188.17 411.167,1352.83 126.5,1517.5C 125.333,1415.83 125.167,1314.17 126,1212.5C 322.481,1098.68 518.981,985.014 715.5,871.5 Z"/></g>
<g><path style="opacity:0.995" fill="#e65614" d="M 1002.5,2047.5 C 1001.83,2047.5 1001.17,2047.5 1000.5,2047.5C 913.726,1996.94 826.726,1946.61 739.5,1896.5C 738.167,1668.17 738.167,1439.83 739.5,1211.5C 826.833,1161.17 914.167,1110.83 1001.5,1060.5C 1002.5,1389.5 1002.83,1718.5 1002.5,2047.5 Z"/></g>
<g><path style="opacity:0.997" fill="#e65614" d="M 1044.5,1060.5 C 1328.78,1224.31 1613.11,1388.14 1897.5,1552C 1898.36,1552.69 1899.02,1553.52 1899.5,1554.5C 1811.96,1605.43 1724.3,1656.1 1636.5,1706.5C 1439.34,1593.09 1242.34,1479.42 1045.5,1365.5C 1044.5,1263.84 1044.17,1162.17 1044.5,1060.5 Z"/></g>
</svg>
