<svg version="1.1" id="Layer_1" xmlns="http://www.w3.org/2000/svg" xmlns:xlink="http://www.w3.org/1999/xlink" x="0px" y="0px"
	 width="100%" viewBox="0 0 512 512" enable-background="new 0 0 512 512" xml:space="preserve">
<path fill="#C6C3BD" opacity="1.000000" stroke="none" 
	d="
M279.312622,512.777832 
	C264.645782,513.000000 250.291550,513.000000 235.468658,513.000000 
	C227.108032,512.148254 219.122284,512.277649 211.274292,511.162994 
	C191.215805,508.314056 172.117844,502.126770 153.528427,494.153809 
	C119.608894,479.605743 90.821320,457.961853 65.691360,431.187134 
	C63.069775,428.393982 60.547226,425.517181 58.702919,421.682068 
	C58.938484,410.031036 63.614849,399.946960 67.868866,389.891144 
	C88.632805,340.808441 123.727821,305.389679 171.591721,282.391296 
	C178.449951,279.095947 185.742401,276.813721 193.624954,273.789673 
	C163.265167,250.273987 148.050644,219.770569 149.143997,182.141037 
	C149.953949,154.264481 160.814255,130.003555 180.483368,110.082581 
	C220.910263,69.138023 288.829010,67.614044 330.908478,107.618149 
	C355.203430,130.714905 366.756500,159.561569 364.693726,193.028198 
	C362.645996,226.249939 347.438263,252.988846 320.604126,273.550201 
	C325.253052,276.102570 329.645416,277.116974 333.752808,278.789948 
	C357.781494,288.576904 379.069702,302.379395 397.976471,320.258484 
	C416.133575,337.428680 430.772064,357.024872 441.500397,379.449219 
	C447.733398,392.477509 453.777649,405.725861 455.438232,420.766663 
	C454.543304,424.514313 452.165100,426.952148 449.948883,429.364716 
	C427.009430,454.336700 400.818054,475.097961 370.114746,489.759552 
	C348.743591,499.964844 326.586334,508.013489 302.947418,511.094055 
	C295.236664,512.098877 287.437286,512.677429 279.312622,512.777832 
z"/>
<path fill="#EFECE8" opacity="1.000000" stroke="none" 
	d="
M454.484253,421.129028 
	C447.358307,392.930817 435.142120,367.517853 417.356232,344.697296 
	C397.231995,318.876465 372.396942,299.052185 342.884064,285.018097 
	C335.505890,281.509583 327.848236,278.694275 320.090698,276.141266 
	C318.913757,275.753937 317.126190,275.830017 317.005798,274.178894 
	C316.914093,272.920868 318.417664,272.485992 319.324463,271.794922 
	C337.851471,257.675476 351.421875,240.022446 358.031738,217.423141 
	C368.515320,181.579407 362.037689,148.895599 339.070709,119.659332 
	C323.329315,99.621002 302.456146,86.986191 277.508240,82.598587 
	C244.759537,76.839058 214.666840,83.556915 188.801926,105.565636 
	C163.812698,126.829193 151.103989,154.167725 151.234741,186.639908 
	C151.375366,221.561371 166.211319,249.893845 193.959045,271.306335 
	C195.102783,272.188904 197.174820,272.648773 196.966019,274.301758 
	C196.755814,275.965973 194.662613,275.905548 193.308426,276.338623 
	C157.273209,287.863953 127.383392,308.769592 102.739128,337.056641 
	C81.737885,361.162231 67.631897,389.111267 59.931511,420.622955 
	C56.299160,421.607574 54.943264,418.614380 53.313313,416.544739 
	C45.587734,406.735291 38.620968,396.393280 32.387650,385.564880 
	C18.575861,361.571228 9.048981,335.964020 3.546157,308.850739 
	C2.258367,302.505585 2.518797,295.980652 1.243273,289.300079 
	C1.000000,286.299988 1.000000,283.599976 1.000000,280.449982 
	C1.135770,279.833344 1.271540,279.666656 1.203655,279.250000 
	C1.000000,264.645782 1.000000,250.291550 1.000000,235.468658 
	C1.135771,234.833328 1.271541,234.666672 1.203656,234.250000 
	C1.000000,231.299988 1.000000,228.599976 1.000000,225.449982 
	C2.868906,220.776382 1.984552,216.211487 2.615335,211.828308 
	C5.501987,191.769592 11.640566,172.683121 19.564541,154.111359 
	C28.831272,132.392487 41.035019,112.442856 56.000679,94.211052 
	C76.562820,69.161377 100.666946,48.236012 128.893997,32.152878 
	C152.350128,18.788126 177.276291,9.389760 203.701813,3.869408 
	C210.553696,2.438036 217.551147,2.637659 224.705490,1.242136 
	C227.700012,1.000000 230.400024,1.000000 233.550018,1.000000 
	C234.166672,1.135771 234.333328,1.271541 234.750000,1.203656 
	C249.354233,1.000000 263.708466,1.000000 278.531342,1.000000 
	C279.166656,1.135770 279.333344,1.271540 279.750000,1.203655 
	C282.700012,1.000000 285.400024,1.000000 288.550018,1.000000 
	C293.223602,2.868906 297.788483,1.984549 302.171661,2.615326 
	C322.230438,5.501946 341.316864,11.640586 359.888672,19.564558 
	C381.607513,28.831293 401.557190,41.035011 419.788971,56.000721 
	C444.838593,76.562897 465.764069,100.666954 481.847168,128.894058 
	C495.211884,152.350204 504.610229,177.276413 510.130615,203.701935 
	C511.561981,210.553772 511.362274,217.551178 512.757874,224.705475 
	C513.000000,227.700012 513.000000,230.400024 513.000000,233.550018 
	C512.864197,234.166672 512.728455,234.333328 512.796326,234.750000 
	C513.000000,249.354233 513.000000,263.708466 513.000000,278.531342 
	C512.864197,279.166656 512.728455,279.333344 512.796326,279.750000 
	C513.000000,282.700012 513.000000,285.400024 513.000000,288.550018 
	C511.153320,293.227875 511.996307,297.790161 511.379822,302.175415 
	C508.581360,322.081818 502.465912,341.009247 494.671143,359.447052 
	C486.201111,379.482208 475.008118,397.922546 461.779419,415.146454 
	C459.895752,417.599030 458.344666,420.553162 454.484253,421.129028 
z"/>
<path fill="#FFFFFF" opacity="1.000000" stroke="none" 
	d="
M1.000000,289.468658 
	C2.926439,289.459259 2.809495,291.003693 3.017089,292.517334 
	C6.259348,316.157654 12.686580,338.862854 22.288904,360.750549 
	C31.832106,382.503448 44.418060,402.279175 59.617996,420.835510 
	C79.081314,443.872040 101.401520,463.131989 127.086960,478.288879 
	C152.631744,493.362762 180.092926,503.624664 209.333344,508.853516 
	C217.646591,510.340149 226.065796,511.234375 234.718201,512.700134 
	C158.406616,513.000000 81.813171,512.966187 5.220039,513.103943 
	C1.544514,513.110535 0.901418,512.260376 0.907379,508.727814 
	C1.030429,435.797821 1.000000,362.867523 1.000000,289.468658 
z"/>
<path fill="#FFFFFF" opacity="1.000000" stroke="none" 
	d="
M453.904114,421.288513 
	C468.914398,403.523499 480.958801,384.334747 490.454376,363.438354 
	C498.418488,345.912292 504.368256,327.807617 508.182007,308.979248 
	C509.301025,303.454865 510.103241,297.865204 510.992157,292.296143 
	C511.175690,291.146515 511.045380,289.932983 512.638489,289.127197 
	C513.000000,362.263245 512.963684,435.526520 513.106079,508.789490 
	C513.113281,512.491455 512.224792,513.095764 508.718262,513.090332 
	C432.458069,512.971741 356.197693,513.000000 279.468658,513.000000 
	C285.185150,511.093384 291.669281,511.058655 297.997955,510.055115 
	C319.465942,506.650879 340.062469,500.502228 360.022705,491.925629 
	C379.554993,483.532898 397.549347,472.581635 414.288055,459.626190 
	C428.786163,448.404877 441.817932,435.548096 453.904114,421.288513 
z"/>
<path fill="#FFFFFF" opacity="1.000000" stroke="none" 
	d="
M224.531342,1.000000 
	C224.624695,2.630266 223.384338,2.814026 221.973969,3.004201 
	C175.053024,9.331094 133.144257,27.330744 96.314926,57.096771 
	C65.984772,81.610062 42.084015,111.294106 25.303339,146.519699 
	C13.793919,170.679977 6.081833,196.042419 2.936157,222.701233 
	C2.833406,223.572037 2.517445,224.295441 1.361535,224.872803 
	C1.000000,151.738327 1.035824,78.476570 0.894913,5.215164 
	C0.887818,1.526426 1.757458,0.902602 5.276886,0.908466 
	C78.205330,1.029966 151.134033,1.000000 224.531342,1.000000 
z"/>
<path fill="#FFFFFF" opacity="1.000000" stroke="none" 
	d="
M513.000000,224.531342 
	C511.369751,224.624649 511.186005,223.384232 510.995850,221.973907 
	C504.668762,175.053040 486.669342,133.144241 456.903229,96.314934 
	C432.389923,65.984795 402.705872,42.084087 367.480347,25.303343 
	C343.320068,13.793864 317.957642,6.081964 291.298828,2.936163 
	C290.428009,2.833403 289.704590,2.517446 289.127197,1.361527 
	C362.261658,1.000000 435.523407,1.035820 508.784790,0.894920 
	C512.473450,0.887826 513.097412,1.757346 513.091553,5.276858 
	C512.970032,78.205315 513.000000,151.134018 513.000000,224.531342 
z"/>
<path fill="#FFFFFF" opacity="1.000000" stroke="none" 
	d="
M234.750000,1.000000 
	C235.000000,1.000000 234.644135,1.305569 234.644135,1.305569 
	C234.644135,1.305569 234.201355,1.250406 234.100677,1.125203 
	C234.000000,1.000000 234.500000,1.000000 234.750000,1.000000 
z"/>
<path fill="#FFFFFF" opacity="1.000000" stroke="none" 
	d="
M279.750000,1.000000 
	C280.000000,1.000000 279.652344,1.309617 279.652344,1.309617 
	C279.652344,1.309617 279.211395,1.242724 279.105713,1.121362 
	C279.000000,1.000000 279.500000,1.000000 279.750000,1.000000 
z"/>
<path fill="#FFFFFF" opacity="1.000000" stroke="none" 
	d="
M1.000000,234.250000 
	C1.245092,234.247131 1.292847,234.494888 1.071632,234.871643 
	C1.000000,235.000000 1.000000,234.500000 1.000000,234.250000 
z"/>
<path fill="#FFFFFF" opacity="1.000000" stroke="none" 
	d="
M513.000000,234.750000 
	C512.764648,234.750046 512.713867,234.499985 512.923828,234.124908 
	C513.000000,234.000000 513.000000,234.500000 513.000000,234.750000 
z"/>
<path fill="#FFFFFF" opacity="1.000000" stroke="none" 
	d="
M1.000000,279.250000 
	C1.235301,279.249969 1.286074,279.500031 1.076160,279.875122 
	C1.000000,280.000000 1.000000,279.500000 1.000000,279.250000 
z"/>
<path fill="#FFFFFF" opacity="1.000000" stroke="none" 
	d="
M513.000000,279.750000 
	C512.754883,279.752869 512.707092,279.505096 512.928345,279.128357 
	C513.000000,279.000000 513.000000,279.500000 513.000000,279.750000 
z"/>
</svg>